<svg xmlns="http://www.w3.org/2000/svg" width="121.196" height="59.368" viewBox="0 0 121.196 59.368">
  <g id="Group_1651" data-name="Group 1651" transform="translate(-899.402 -500.632)">
    <path id="Path_1195" data-name="Path 1195" d="M124.783,425.091h-1.217V393.367a9.926,9.926,0,0,0,4.572-8.352,1.076,1.076,0,0,0-.141-.531l-8.485-14.848a3.363,3.363,0,0,0-2.913-1.687H66.677a3.363,3.363,0,0,0-2.913,1.691l-8.485,14.845a1.07,1.07,0,0,0-.141.53,9.926,9.926,0,0,0,4.572,8.352v31.724H58.493a1.07,1.07,0,1,0,0,2.139h66.29a1.07,1.07,0,0,0,0-2.139ZM57.35,386.085h3.429a1.069,1.069,0,0,0,0-2.139H58.05L65.621,370.7a1.216,1.216,0,0,1,1.056-.613H116.6a1.217,1.217,0,0,1,1.056.613l7.571,13.252H122.5a1.07,1.07,0,1,0,0,2.139h3.429a7.787,7.787,0,0,1-15.428,0h7.428a1.07,1.07,0,0,0,0-2.139H65.351a1.07,1.07,0,1,0,0,2.139h7.427a7.787,7.787,0,0,1-15.428,0Zm50.858,0a7.787,7.787,0,0,1-15.426,0Zm-17.715,0a7.787,7.787,0,0,1-15.426,0Zm25.22,39.007H104.138v-3.576h11.575Zm0-5.715H104.138V399.8h11.575Zm5.715,5.715h-3.576V398.73a1.069,1.069,0,0,0-1.069-1.069H103.067A1.068,1.068,0,0,0,102,398.73h0v26.361H61.848V394.4a9.918,9.918,0,0,0,12.074-4.91,9.925,9.925,0,0,0,17.715,0,9.925,9.925,0,0,0,17.715,0,9.918,9.918,0,0,0,12.074,4.91ZM97.352,397.661H66.493a1.068,1.068,0,0,0-1.069,1.069h0v21.715a1.069,1.069,0,0,0,1.069,1.069H97.352a1.07,1.07,0,0,0,1.069-1.069h0V398.73a1.069,1.069,0,0,0-1.069-1.069Zm-1.073,21.716H67.563V399.8H96.279ZM24.8,375.041H45.306v2.93H24.8Zm-12,6H33.306v2.93H12.8Zm6.142-6h2.93v2.93h-2.93Zm-12,6h2.93v2.93H6.942Z" transform="translate(892.46 132.683)"/>
    <g id="Group_1638" data-name="Group 1638" transform="translate(647.159 276.753)">
      <path id="Path_1200" data-name="Path 1200" d="M433.944,318.568" transform="translate(-152.243 -59.454)" fill="#fff"/>
      <path id="Path_1201" data-name="Path 1201" d="M401.944,286.568" transform="translate(-124.236 -31.446)" fill="#cfd0d1"/>
      <g id="Group_1635" data-name="Group 1635" transform="translate(266.557 282.278)">
        <path id="Path_1202" data-name="Path 1202" d="M312.56,504.24" transform="translate(-312.56 -504.24)" fill="#fff"/>
      </g>
      <line id="Line_330" data-name="Line 330" y2="27.646" transform="translate(262.565 250.64)" fill="#ffbf5d"/>
      <path id="Path_1203" data-name="Path 1203" d="M352.8,292.781V283.2h8.384v9.581l-4.192-3.693Z" transform="translate(-81.223 -28.498)" fill="#fff"/>
      <g id="Group_1637" data-name="Group 1637" transform="translate(260 253.704)">
        <path id="Path_1204" data-name="Path 1204" d="M272.575,277.2h6.388v6.388l-2.5-2.2a.965.965,0,0,0-1.4,0l-2.5,2.2ZM261.1,304.742h29.343a.943.943,0,0,0,1-1V276.2a.943.943,0,0,0-1-1H261a.943.943,0,0,0-1,1v26.548C260,304.852,261.1,304.742,261.1,304.742Zm28.345-2H262.1V277.2h8.484v8.583a.873.873,0,0,0,.6.9.911.911,0,0,0,1.1-.2l3.493-3.094,3.493,3.094a1.087,1.087,0,0,0,1.1.2.959.959,0,0,0,.6-.9V277.2h8.483v25.55Z" transform="translate(-260 -275.2)"/>
        <rect id="Rectangle_2271" data-name="Rectangle 2271" width="1.996" height="1.996" transform="translate(9.382 19.063)"/>
        <rect id="Rectangle_2272" data-name="Rectangle 2272" width="1.996" height="1.996" transform="translate(14.771 19.063)"/>
        <rect id="Rectangle_2273" data-name="Rectangle 2273" width="1.996" height="1.996" transform="translate(20.161 19.063)"/>
      </g>
    </g>
  </g>
</svg>
