<svg xmlns="http://www.w3.org/2000/svg" width="43.88" height="31.052" viewBox="0 0 43.88 31.052">
  <g id="credit-card_1_" data-name="credit-card (1)" transform="translate(0 -84.2)">
    <g id="Group_1628" data-name="Group 1628" transform="translate(0 84.2)">
      <g id="Group_1627" data-name="Group 1627" transform="translate(0 0)">
        <path id="Path_1196" data-name="Path 1196" d="M37.415,84.2H31a.814.814,0,0,0,0,1.629h6.363A4.867,4.867,0,0,1,42.2,90.665v.967H1.629v-.967a4.867,4.867,0,0,1,4.836-4.836H25.254a.814.814,0,0,0,0-1.629H6.465A6.474,6.474,0,0,0,0,90.665v18.122a6.474,6.474,0,0,0,6.465,6.465h30.95a6.474,6.474,0,0,0,6.465-6.465V90.716A6.485,6.485,0,0,0,37.415,84.2Zm4.836,24.587a4.834,4.834,0,0,1-4.836,4.836H6.465a4.867,4.867,0,0,1-4.836-4.836V98.148H42.251Zm0-12.268H1.629V93.312H42.251Z" transform="translate(0 -84.2)"/>
      </g>
    </g>
    <g id="Group_1630" data-name="Group 1630" transform="translate(4.276 102.169)">
      <g id="Group_1629" data-name="Group 1629" transform="translate(0 0)">
        <path id="Path_1197" data-name="Path 1197" d="M42.2,225.4H34.414a.814.814,0,1,0,0,1.629H42.2a.814.814,0,1,0,0-1.629Z" transform="translate(-33.6 -225.4)"/>
      </g>
    </g>
    <g id="Group_1632" data-name="Group 1632" transform="translate(15.628 102.169)">
      <g id="Group_1631" data-name="Group 1631" transform="translate(0 0)">
        <path id="Path_1198" data-name="Path 1198" d="M127.992,225.4h-4.378a.814.814,0,0,0,0,1.629h4.378a.814.814,0,0,0,0-1.629Z" transform="translate(-122.8 -225.4)"/>
      </g>
    </g>
    <g id="Group_1634" data-name="Group 1634" transform="translate(30.899 102.118)">
      <g id="Group_1633" data-name="Group 1633">
        <path id="Path_1199" data-name="Path 1199" d="M246.465,225a3.665,3.665,0,1,0,3.665,3.665A3.682,3.682,0,0,0,246.465,225Zm0,5.7a2.036,2.036,0,1,1,2.036-2.036A2.042,2.042,0,0,1,246.465,230.7Z" transform="translate(-242.8 -225)"/>
      </g>
    </g>
  </g>
</svg>
