<svg xmlns="http://www.w3.org/2000/svg" xmlns:xlink="http://www.w3.org/1999/xlink" width="34.67" height="36.079" viewBox="0 0 34.67 36.079">
  <defs>
    <linearGradient id="linear-gradient" x1="0.08" y1="0.412" x2="0.937" y2="0.424" gradientUnits="objectBoundingBox">
      <stop offset="0" stop-color="#d12b8a"/>
      <stop offset="1" stop-color="#562b7c"/>
    </linearGradient>
  </defs>
  <g id="gift_2_" data-name="gift (2)" transform="translate(-10)">
    <g id="Group_1782" data-name="Group 1782" transform="translate(10)">
      <g id="Group_1781" data-name="Group 1781">
        <path id="Path_1273" data-name="Path 1273" d="M42.82,7.047H39.986a1.8,1.8,0,0,0,.044-.393V1.8a1.8,1.8,0,0,0-1.8-1.8H36.491A7.758,7.758,0,0,0,29.67,4.073a2.812,2.812,0,0,0-4.749.125A7.759,7.759,0,0,0,18.033,0H16.3a1.8,1.8,0,0,0-1.8,1.8V6.654a1.8,1.8,0,0,0,.044.393H11.85A1.852,1.852,0,0,0,10,8.9v3.91a1.853,1.853,0,0,0,1.2,1.731v19.11a2.434,2.434,0,0,0,2.431,2.431H41.041a2.434,2.434,0,0,0,2.431-2.431V26.131a.7.7,0,1,0-1.409,0v7.518a1.023,1.023,0,0,1-1.022,1.022H33.4V30.053a.7.7,0,1,0-1.409,0V34.67H30.295V14.657h1.13v.416a.7.7,0,0,0,1.2.5l1.758-1.747,1.758,1.747a.7.7,0,0,0,1.2-.5v-.416h4.719v5.285a.7.7,0,0,0,1.409,0v-5.4a1.853,1.853,0,0,0,1.2-1.731V8.9A1.852,1.852,0,0,0,42.82,7.047ZM27.335,4.237a1.406,1.406,0,0,1,1.4,1.4v1.4H25.93v-1.4h0A1.406,1.406,0,0,1,27.335,4.237ZM15.9,1.8a.393.393,0,0,1,.393-.393h1.736a6.352,6.352,0,0,1,5.96,4.174A7.831,7.831,0,0,0,19.02,3.805a.7.7,0,1,0,0,1.409,6.424,6.424,0,0,1,4.5,1.832H16.3a.393.393,0,0,1-.393-.393ZM24.375,34.67H18.858l5.517-5.517Zm0-7.51-7.51,7.51H13.629a1.017,1.017,0,0,1-.7-.277L24.375,22.95Zm0-12.4a.71.71,0,0,0-.07.06l-4.234,4.234a.7.7,0,1,0,1,1l3.307-3.307v4.21L12.607,32.724v-4.21L17.2,23.923a.7.7,0,0,0-1-1l-3.595,3.595v-4.21l7.653-7.653h4.115ZM12.607,20.317v-5.66h5.66ZM28.885,34.67h-3.1V14.657h3.1Zm2.54-21.422H11.85a.441.441,0,0,1-.441-.441V8.9a.441.441,0,0,1,.441-.441H31.425Zm4.51.131-1.054-1.047a.7.7,0,0,0-.993,0l-1.054,1.047V8.456h3.1Zm.7-6.333H31.154a6.425,6.425,0,0,1,4.5-1.832.7.7,0,0,0,0-1.409,7.831,7.831,0,0,0-5.178,1.953,6.352,6.352,0,0,1,6.019-4.348h1.736a.393.393,0,0,1,.393.393V6.654a.393.393,0,0,1-.393.393Zm6.621,5.761a.441.441,0,0,1-.441.441H37.344V8.456H42.82a.441.441,0,0,1,.441.441Z" transform="translate(-10)" fill="url(#linear-gradient)"/>
      </g>
    </g>
    <g id="Group_1784" data-name="Group 1784" transform="translate(41.928 22.338)">
      <g id="Group_1783" data-name="Group 1783">
        <path id="Path_1274" data-name="Path 1274" d="M466.265,317.887a.741.741,0,1,0,.217.524A.743.743,0,0,0,466.265,317.887Z" transform="translate(-465 -317.67)" fill="url(#linear-gradient)"/>
      </g>
    </g>
    <g id="Group_1786" data-name="Group 1786" transform="translate(31.938 26.695)">
      <g id="Group_1785" data-name="Group 1785">
        <path id="Path_1275" data-name="Path 1275" d="M323.265,379.847a.741.741,0,1,0,.217.524A.747.747,0,0,0,323.265,379.847Z" transform="translate(-322 -379.63)" fill="url(#linear-gradient)"/>
      </g>
    </g>
    <g id="Group_1788" data-name="Group 1788" transform="translate(17.944 20.71)">
      <g id="Group_1787" data-name="Group 1787">
        <path id="Path_1276" data-name="Path 1276" d="M124.244,294.737a.741.741,0,1,0,.217.524A.743.743,0,0,0,124.244,294.737Z" transform="translate(-122.979 -294.52)" fill="url(#linear-gradient)"/>
      </g>
    </g>
  </g>
</svg>
