<svg xmlns="http://www.w3.org/2000/svg" width="121.69" height="72.814" viewBox="0 0 121.69 72.814">
  <g id="Group_1650" data-name="Group 1650" transform="translate(-395.31 -487.186)">
    <g id="Home_delivery" data-name="Home delivery" transform="translate(442.171 485.186)">
      <path id="Path_1192" data-name="Path 1192" d="M74.615,43.8l-4.65-6.972V31.052a4.307,4.307,0,0,0,2.819-7.936l-10.1-6.266V5.641A1.214,1.214,0,0,0,61.47,4.427H54.189a1.214,1.214,0,0,0-1.214,1.214v5.183L39.052,2.182a1.214,1.214,0,0,0-1.279,0L4.04,23.116a4.3,4.3,0,0,0,2.819,7.94V67.533H3.219a1.214,1.214,0,1,0,0,2.427H38.412V73.6a1.214,1.214,0,0,0,1.214,1.214h33.98A1.214,1.214,0,0,0,74.819,73.6V44.475a2.168,2.168,0,0,0-.2-.674Zm-15.792-.54H54.408l.808-4.854h2.8Zm-6.876,0H41.893l3.237-4.854h7.627Zm2.241,2.427h4.854v8.654l-1.754-1.169a1.214,1.214,0,0,0-1.347,0l-1.754,1.169Zm7.1-2.427-.809-4.854H68.1l3.237,4.854ZM55.4,6.854h4.854v8.5L55.4,12.336ZM5.4,28.421a1.879,1.879,0,0,1-.083-3.241L38.412,4.642,71.5,25.179a1.88,1.88,0,1,1-1.983,3.194L39.052,9.463a1.214,1.214,0,0,0-1.279,0L7.3,28.376a1.854,1.854,0,0,1-1.9.045ZM16.568,67.533v-26.7H31.131v26.7Zm16.99,0V39.621a1.214,1.214,0,0,0-1.214-1.214H15.354a1.214,1.214,0,0,0-1.214,1.214V67.533H9.286V30L38.412,11.919,67.538,30V35.98H44.48a1.214,1.214,0,0,0-1.01.54L38.616,43.8a2.167,2.167,0,0,0-.2.674V67.533Zm38.834,4.854H40.839v-26.7H51.761V56.611a1.214,1.214,0,0,0,1.887,1.01l2.967-1.981,2.967,1.978a1.214,1.214,0,0,0,1.887-1.007V45.689H72.392Z" transform="translate(0 0)"/>
      <path id="Path_1193" data-name="Path 1193" d="M24.427,44H23.214a1.214,1.214,0,1,0,0,2.427h1.214a1.214,1.214,0,1,0,0-2.427Z" transform="translate(4.276 8.97)"/>
      <path id="Path_1194" data-name="Path 1194" d="M40.563,22.281a7.281,7.281,0,1,0-7.281,7.281,7.281,7.281,0,0,0,7.281-7.281Zm-6.068,4.682V23.5h3.468a4.854,4.854,0,0,1-3.468,3.468Zm3.468-5.9H34.495V17.6A4.854,4.854,0,0,1,37.963,21.068Zm-5.9-3.468v3.468H28.6A4.854,4.854,0,0,1,32.068,17.6ZM28.6,23.5h3.468v3.468A4.854,4.854,0,0,1,28.6,23.5Z" transform="translate(5.131 2.776)"/>
    </g>
    <g id="truck_1_" data-name="truck (1)" transform="translate(-616 465.467)">
      <g id="Group_1622" data-name="Group 1622" transform="translate(1029.168 51.123)">
        <g id="Group_1621" data-name="Group 1621" transform="translate(0 0)">
          <rect id="Rectangle_2253" data-name="Rectangle 2253" width="20.506" height="2.93"/>
        </g>
      </g>
      <g id="Group_1625" data-name="Group 1625" transform="translate(1017.168 57.123)">
        <g id="Group_1621-2" data-name="Group 1621" transform="translate(0 0)">
          <rect id="Rectangle_2253-2" data-name="Rectangle 2253" width="20.506" height="2.93"/>
        </g>
      </g>
      <g id="Group_1624" data-name="Group 1624" transform="translate(1023.31 51.123)">
        <g id="Group_1623" data-name="Group 1623" transform="translate(0 0)">
          <rect id="Rectangle_2254" data-name="Rectangle 2254" width="2.93" height="2.93"/>
        </g>
      </g>
      <g id="Group_1626" data-name="Group 1626" transform="translate(1011.31 57.123)">
        <g id="Group_1623-2" data-name="Group 1623" transform="translate(0 0)">
          <rect id="Rectangle_2254-2" data-name="Rectangle 2254" width="2.93" height="2.93"/>
        </g>
      </g>
    </g>
    <rect id="Rectangle_2274" data-name="Rectangle 2274" width="3.036" height="3.036" transform="translate(490.142 549)"/>
    <rect id="Rectangle_2275" data-name="Rectangle 2275" width="3.036" height="3.036" transform="translate(498.34 549)"/>
    <rect id="Rectangle_2276" data-name="Rectangle 2276" width="3.036" height="3.036" transform="translate(506.537 549)"/>
  </g>
</svg>
