<svg xmlns="http://www.w3.org/2000/svg" xmlns:xlink="http://www.w3.org/1999/xlink" width="25.291" height="30.351" viewBox="0 0 25.291 30.351">
  <defs>
    <linearGradient id="linear-gradient" x1="0.213" y1="0.331" x2="0.771" y2="0.347" gradientUnits="objectBoundingBox">
      <stop offset="0" stop-color="#d12b8a"/>
      <stop offset="1" stop-color="#562b7c"/>
    </linearGradient>
  </defs>
  <path id="hourglass" d="M4782.993,4719.828a.5.5,0,1,1-.5.5A.5.5,0,0,1,4782.993,4719.828Zm2-1a.5.5,0,1,1-.5.5A.5.5,0,0,1,4784.993,4718.828Zm-3,0a.5.5,0,1,1-.5.5A.5.5,0,0,1,4781.993,4718.828Zm-2-1a.5.5,0,1,1-.5.5A.5.5,0,0,1,4779.993,4717.828Zm6,0a.5.5,0,1,1-.5.5A.5.5,0,0,1,4785.993,4717.828Zm2-1a.5.5,0,1,1-.5.5A.5.5,0,0,1,4787.993,4716.828Zm-9,0a.5.5,0,1,1-.5.5A.5.5,0,0,1,4778.993,4716.828Zm4,1a.5.5,0,1,1-.5.5A.5.5,0,0,1,4782.993,4717.828Zm0,6a.5.5,0,1,1-.5.5A.5.5,0,0,1,4782.993,4723.828Zm0,2a.5.5,0,1,1-.5.5A.5.5,0,0,1,4782.993,4725.828Zm0,1a.5.5,0,1,1-.5.5A.5.5,0,0,1,4782.993,4726.828Zm0,2a.5.5,0,1,1-.5.5A.5.5,0,0,1,4782.993,4728.828Zm0,1a.5.5,0,1,1-.5.5A.5.5,0,0,1,4782.993,4729.828Zm0,2a.5.5,0,1,1-.5.5A.5.5,0,0,1,4782.993,4731.828Zm12.284,4.988h-1.517v-2.023h-2.529v-5.17a4.069,4.069,0,0,0-1.815-3.392l-5.366-3.577,5.366-3.574a4.068,4.068,0,0,0,1.815-3.392v-5.173h2.529v-2.023h1.517a.506.506,0,1,0,0-1.012H4771a.506.506,0,0,0,0,1.012h1.517v2.023h2.529v5.17a4.07,4.07,0,0,0,1.816,3.4l5.366,3.577-5.366,3.577a4.073,4.073,0,0,0-1.815,3.392v5.17h-2.53v2.023H4771a.506.506,0,1,0,0,1.012h24.279a.506.506,0,0,0,0-1.012Zm-21.749-27.313v-1.011h19.22v1.011Zm3.894,8.732a3.059,3.059,0,0,1-1.365-2.55v-5.17h14.162v5.17a3.059,3.059,0,0,1-1.365,2.55l-5.717,3.811Zm-1.365,11.388a3.06,3.06,0,0,1,1.365-2.55l5.717-3.811,5.717,3.811a3.06,3.06,0,0,1,1.365,2.55v5.17h-14.164Zm-2.529,6.182h19.22v1.012h-19.22Z" transform="translate(-4770.492 -4707.48)" fill="url(#linear-gradient)"/>
</svg>
