<svg xmlns="http://www.w3.org/2000/svg" xmlns:xlink="http://www.w3.org/1999/xlink" width="46.348" height="46.351" viewBox="0 0 46.348 46.351">
  <defs>
    <linearGradient id="linear-gradient" x1="0.187" y1="0.56" x2="1" y2="0.786" gradientUnits="objectBoundingBox">
      <stop offset="0" stop-color="#d12b8a"/>
      <stop offset="1" stop-color="#562b7c"/>
    </linearGradient>
  </defs>
  <path id="Location" d="M366.169,162.945h-15.45a2.317,2.317,0,0,0-2.317,2.317h0v15.45a2.317,2.317,0,0,0,2.317,2.317h15.45a2.317,2.317,0,0,0,2.317-2.317h0v-15.45a2.317,2.317,0,0,0-2.317-2.317Zm-6.179,1.545v7.054l-1.117-.744a.773.773,0,0,0-.857,0l-1.117.744V164.49Zm6.954,16.222a.773.773,0,0,1-.772.772H350.719a.772.772,0,0,1-.772-.772h0v-15.45a.772.772,0,0,1,.772-.772h4.635v8.5a.773.773,0,0,0,1.2.642l1.885-1.265,1.889,1.259a.772.772,0,0,0,1.2-.644v-8.5h4.635a.772.772,0,0,1,.772.772h0Zm-36.3,28.582a.775.775,0,0,1-.583-.265c-.328-.371-7.919-9.135-7.919-13.635a8.5,8.5,0,0,1,16.994,0c0,4.507-7.592,13.269-7.915,13.64A.776.776,0,0,1,330.64,209.294Zm0-20.857a6.966,6.966,0,0,0-6.958,6.958c0,2.993,4.578,9.1,6.952,11.941,2.373-2.846,6.952-8.949,6.952-11.941A6.966,6.966,0,0,0,330.64,188.437Zm0,10.815a3.863,3.863,0,1,1,3.863-3.863,3.863,3.863,0,0,1-3.863,3.863Zm0-6.18a2.317,2.317,0,1,0,2.317,2.317,2.318,2.318,0,0,0-2.317-2.317Zm33.989,16.222H334.5a.772.772,0,0,1,0-1.545h30.127a2.318,2.318,0,0,0,0-4.635H345.313a3.863,3.863,0,0,1,0-7.725H356.9a2.318,2.318,0,0,0,0-4.635H345.313a3.866,3.866,0,0,1-3.863-3.863V183.8a2.318,2.318,0,0,0-2.317-2.317H327.546a5.408,5.408,0,0,1,0-10.815h18.541a.772.772,0,1,1,0,1.545H327.546a3.863,3.863,0,0,0,0,7.725h11.587A3.866,3.866,0,0,1,343,183.8v3.09a2.318,2.318,0,0,0,2.315,2.319H356.9a3.863,3.863,0,0,1,0,7.725H345.313a2.318,2.318,0,1,0,0,4.635h19.313a3.863,3.863,0,0,1,0,7.725Z" transform="translate(-322.138 -162.945)" fill="url(#linear-gradient)"/>
</svg>
