<svg id="sticker" xmlns="http://www.w3.org/2000/svg" xmlns:xlink="http://www.w3.org/1999/xlink" width="57.684" height="57.684" viewBox="0 0 57.684 57.684">
  <defs>
    <linearGradient id="linear-gradient" y1="0.5" x2="1" y2="0.5" gradientUnits="objectBoundingBox">
      <stop offset="0" stop-color="#d12b8a"/>
      <stop offset="1" stop-color="#70489d"/>
    </linearGradient>
  </defs>
  <g id="Group_81" data-name="Group 81">
    <g id="Group_80" data-name="Group 80">
      <path id="Path_135" data-name="Path 135" d="M57.68,28.776a.851.851,0,0,0-.245-.533l-28-28a.857.857,0,0,0-.6-.248A28.842,28.842,0,0,0,8.447,49.236,28.842,28.842,0,0,0,57.684,28.842C57.684,28.82,57.682,28.8,57.68,28.776Zm-5.411-3.3a51.67,51.67,0,0,0-5.991-1.942c-3.469-.962-6.465-1.793-8.676-4.281-2.532-2.85-3.171-5.706-3.847-8.729A36.381,36.381,0,0,0,32.395,5.6ZM28.842,55.99A27.148,27.148,0,0,1,28.416,1.7,22.729,22.729,0,0,1,32.1,10.889c.2.9.4,1.781.639,2.657H17.1a.847.847,0,0,0-.847.847v3.725a.847.847,0,1,0,1.693,0V15.239H33.277a15.436,15.436,0,0,0,3.06,5.134,11.844,11.844,0,0,0,3.4,2.642V36.066a.847.847,0,0,0,.847.847h3.782L28.842,48.554,13.32,36.913H17.1a.847.847,0,0,0,.847-.847v-14a.847.847,0,1,0-1.693,0V35.22H10.78a.847.847,0,0,0-.508,1.524L28.334,50.29a.854.854,0,0,0,1.016,0L47.411,36.744A.847.847,0,0,0,46.9,35.22H41.428V23.784a45.106,45.106,0,0,0,4.4,1.378A34.756,34.756,0,0,1,55.985,29.3,27.179,27.179,0,0,1,28.842,55.99Z" fill="url(#linear-gradient)"/>
    </g>
  </g>
  <g id="Group_83" data-name="Group 83" transform="translate(22.577 23.48)">
    <g id="Group_82" data-name="Group 82">
      <path id="Path_136" data-name="Path 136" d="M212.673,208.655a.847.847,0,0,0-1.2,0l-10.837,10.837a.847.847,0,0,0,1.2,1.2l10.837-10.837A.846.846,0,0,0,212.673,208.655Z" transform="translate(-200.391 -208.407)" fill="url(#linear-gradient)"/>
    </g>
  </g>
  <g id="Group_85" data-name="Group 85" transform="translate(30.704 30.704)">
    <g id="Group_84" data-name="Group 84">
      <path id="Path_137" data-name="Path 137" d="M275.185,272.532a2.653,2.653,0,1,0,2.653,2.653A2.656,2.656,0,0,0,275.185,272.532Zm0,3.612a.96.96,0,1,1,.96-.96A.961.961,0,0,1,275.185,276.144Z" transform="translate(-272.532 -272.532)" fill="url(#linear-gradient)"/>
    </g>
  </g>
  <g id="Group_87" data-name="Group 87" transform="translate(21.674 23.48)">
    <g id="Group_86" data-name="Group 86">
      <path id="Path_138" data-name="Path 138" d="M195.029,208.407a2.653,2.653,0,1,0,2.653,2.653A2.656,2.656,0,0,0,195.029,208.407Zm0,3.612a.96.96,0,1,1,.96-.96A.961.961,0,0,1,195.029,212.019Z" transform="translate(-192.376 -208.407)" fill="url(#linear-gradient)"/>
    </g>
  </g>
</svg>
