<svg xmlns="http://www.w3.org/2000/svg" xmlns:xlink="http://www.w3.org/1999/xlink" width="47.66" height="54.107" viewBox="0 0 47.66 54.107">
  <defs>
    <linearGradient id="linear-gradient" y1="0.737" x2="1" y2="0.71" gradientUnits="objectBoundingBox">
      <stop offset="0" stop-color="#d12b8a"/>
      <stop offset="1" stop-color="#70489d"/>
    </linearGradient>
  </defs>
  <path id="save-money" d="M-141.037-90.471a.836.836,0,0,0-.3-.01,2.018,2.018,0,0,1-1.784-2,.887.887,0,0,0-.887-.887.887.887,0,0,0-.887.887h0a3.8,3.8,0,0,0,2.793,3.655v.887a.887.887,0,0,0,.887.887.887.887,0,0,0,.887-.887v-.834A3.79,3.79,0,0,0-137.4-93.26a3.79,3.79,0,0,0-3.708-3.012,2.015,2.015,0,0,1-2.015-2.015,2.015,2.015,0,0,1,2.015-2.015,2.015,2.015,0,0,1,2.015,2.015h0a.887.887,0,0,0,.887.887.887.887,0,0,0,.887-.887,3.8,3.8,0,0,0-3.013-3.71v-.808a.887.887,0,0,0-.887-.887.887.887,0,0,0-.887.887h0v.862a3.79,3.79,0,0,0-2.664,4.65,3.79,3.79,0,0,0,3.663,2.8,2.013,2.013,0,0,1,2.023,2,2.013,2.013,0,0,1-1.95,2.023Zm-12.939-4.844a12.869,12.869,0,0,0,12.869,12.869,12.869,12.869,0,0,0,12.869-12.869,12.869,12.869,0,0,0-12.869-12.869,12.869,12.869,0,0,0-12.869,12.869Zm12.869-11.094a11.094,11.094,0,0,1,11.094,11.094,11.094,11.094,0,0,1-11.094,11.094A11.094,11.094,0,0,1-152.2-95.315h0a11.093,11.093,0,0,1,11.09-11.1Zm17.241,26.151-6.952,3.285a5.664,5.664,0,0,0-4.827-2.979l-6.413-.177a6.776,6.776,0,0,1-2.917-.753l-.653-.338a11.518,11.518,0,0,0-10.669.011l.04-1.479a.887.887,0,0,0-.862-.912h0l-7.034-.193a.887.887,0,0,0-.911.863l-.435,15.444a.887.887,0,0,0,.862.912h0l7.034.193h.024a.887.887,0,0,0,.887-.864l.021-.739,1.829-.978a3.14,3.14,0,0,1,2.341-.257l10.918,3.064.058.014a11.616,11.616,0,0,0,2.4.247,11.831,11.831,0,0,0,4.946-1.08.87.87,0,0,0,.11-.061l15.826-10.24a.888.888,0,0,0,.291-1.182A4.482,4.482,0,0,0-123.865-80.258ZM-163.7-68.325l.375-13.666,5.263.145-.376,13.67Zm28.725-.233a10.066,10.066,0,0,1-6.153.687l-10.889-3.052a4.905,4.905,0,0,0-3.658.4l-.931.5.25-9.093a9.756,9.756,0,0,1,9.911-.529l.653.338a8.568,8.568,0,0,0,3.684.952l6.418.177a3.892,3.892,0,0,1,3.7,3.1l-9.56-.264a.888.888,0,0,0-.912.864.889.889,0,0,0,.864.911l10.55.291h.025a.886.886,0,0,0,.886-.864,5.575,5.575,0,0,0-.086-1.151l7.131-3.369.021-.01a2.713,2.713,0,0,1,3.067.429Zm-5.248-42.124v-8.431a.887.887,0,0,0-.887-.887.887.887,0,0,0-.887.887v8.431a.887.887,0,0,0,.887.887A.887.887,0,0,0-140.224-110.682Zm6.657,0v-3.994a.887.887,0,0,0-.887-.887.887.887,0,0,0-.887.887h0v3.994a.887.887,0,0,0,.887.887A.887.887,0,0,0-133.567-110.682Zm-13.313,0v-3.994a.887.887,0,0,0-.887-.887.887.887,0,0,0-.887.887h0v3.994a.887.887,0,0,0,.887.887A.887.887,0,0,0-146.88-110.682Z" transform="translate(165.499 120)" fill="url(#linear-gradient)"/>
</svg>
