<svg xmlns="http://www.w3.org/2000/svg" xmlns:xlink="http://www.w3.org/1999/xlink" width="43.973" height="40.337" viewBox="0 0 43.973 40.337">
  <defs>
    <linearGradient id="linear-gradient" x1="0.111" y1="0.5" x2="1" y2="0.5" gradientUnits="objectBoundingBox">
      <stop offset="0" stop-color="#d12b8a"/>
      <stop offset="1" stop-color="#70489d"/>
    </linearGradient>
  </defs>
  <path id="percentage" d="M-78.432,7.908A20.165,20.165,0,0,0-106.949,7.9l-.184.187a1.089,1.089,0,0,0,.018,1.539,1.089,1.089,0,0,0,1.539-.019,17.992,17.992,0,0,1,25.443-.316,17.992,17.992,0,0,1,.316,25.443,17.992,17.992,0,0,1-25.443.316,17.994,17.994,0,0,1-5.429-12.884v-.226l1.792,1.791a1.09,1.09,0,0,0,.769.317,1.1,1.1,0,0,0,.769-.317,1.087,1.087,0,0,0,0-1.537h0L-111,18.549a1.087,1.087,0,0,0-1.537,0h0l-3.647,3.647a1.087,1.087,0,0,0,.008,1.538,1.088,1.088,0,0,0,1.53,0l1.791-1.791v.226A20.166,20.166,0,0,0-92.687,42.337a20.164,20.164,0,0,0,14.264-5.908A20.173,20.173,0,0,0-78.432,7.908Zm-8.487,6.919-13.337,13.328a1.085,1.085,0,0,0-.007,1.535,1.086,1.086,0,0,0,.776.322,1.1,1.1,0,0,0,.769-.317l13.337-13.337a1.085,1.085,0,0,0,.023-1.534,1.084,1.084,0,0,0-1.533-.023l-.028.028Zm-3.492,8.979a3.888,3.888,0,0,0,0,5.5,3.888,3.888,0,0,0,5.5,0,3.888,3.888,0,0,0,0-5.5,3.889,3.889,0,0,0-2.748-1.138A3.894,3.894,0,0,0-90.411,23.806Zm3.963,3.963a1.69,1.69,0,0,1-1.213.5,1.71,1.71,0,0,1-1.717-1.7,1.71,1.71,0,0,1,.5-1.22,1.69,1.69,0,0,1,1.213-.5,1.71,1.71,0,0,1,1.717,1.7A1.71,1.71,0,0,1-86.449,27.769ZM-97.687,13.862a3.892,3.892,0,0,0-3.894,3.89,3.893,3.893,0,0,0,3.89,3.894,3.892,3.892,0,0,0,3.894-3.89A3.89,3.89,0,0,0-94.936,15,3.869,3.869,0,0,0-97.687,13.862Zm1.213,5.1a1.69,1.69,0,0,1-1.213.5,1.729,1.729,0,0,1-1.213-.5,1.69,1.69,0,0,1-.5-1.213,1.729,1.729,0,0,1,.5-1.213,1.69,1.69,0,0,1,1.213-.5,1.729,1.729,0,0,1,1.213.5,1.725,1.725,0,0,1,0,2.425Z" transform="translate(116.496 -2)" fill="url(#linear-gradient)"/>
</svg>
