<svg xmlns="http://www.w3.org/2000/svg" xmlns:xlink="http://www.w3.org/1999/xlink" width="48.325" height="44.294" viewBox="0 0 48.325 44.294">
  <defs>
    <linearGradient id="linear-gradient" x1="0.154" y1="0.548" x2="0.856" y2="0.556" gradientUnits="objectBoundingBox">
      <stop offset="0" stop-color="#d12b8a"/>
      <stop offset="1" stop-color="#70489d"/>
    </linearGradient>
  </defs>
  <path id="smart-home" d="M-24.524-19.624l-23.154-20.13a1.009,1.009,0,0,0-1.321,0l-23.154,20.13a1.007,1.007,0,0,0-.1,1.421,1,1,0,0,0,.758.345h5.032V3.287a1.006,1.006,0,0,0,1.005,1.007h34.23a1.006,1.006,0,0,0,1.007-1.005V-17.854h5.033a1.007,1.007,0,0,0,1.011-1A1.006,1.006,0,0,0-24.524-19.624Zm-6.7-.247a1.006,1.006,0,0,0-1.008,1V2.281H-64.447V-18.861a1.006,1.006,0,0,0-1.006-1.006H-68.8L-48.339-37.66l20.462,17.793h-3.348ZM-48.339-7.786a2.013,2.013,0,0,0-2.013,2.013,2.013,2.013,0,0,0,2.013,2.013,2.013,2.013,0,0,0,2.013-2.013A2.017,2.017,0,0,0-48.339-7.786Zm0-4.025A5.992,5.992,0,0,0-53.171-9.4a1.007,1.007,0,0,0,.239,1.4,1.006,1.006,0,0,0,1.371-.195A4.146,4.146,0,0,1-45.73-8.8a4.15,4.15,0,0,1,.61.61,1.008,1.008,0,0,0,1.4.246,1.008,1.008,0,0,0,.246-1.4c-.013-.019-.027-.037-.041-.054A6,6,0,0,0-48.339-11.811Zm0-4.028a10.056,10.056,0,0,0-7.654,3.529,1.007,1.007,0,0,0,.034,1.423,1.006,1.006,0,0,0,1.422-.034c.025-.026.048-.053.07-.081A8.053,8.053,0,0,1-43.112-11.9a8,8,0,0,1,.895.895,1.007,1.007,0,0,0,1.417.139,1.007,1.007,0,0,0,.139-1.417l-.025-.03A10.062,10.062,0,0,0-48.339-15.839Zm-10.492.657a1.008,1.008,0,0,0,.076,1.422,1.007,1.007,0,0,0,1.422-.077h0a12.08,12.08,0,0,1,17.059-.926,12.121,12.121,0,0,1,.926.926,1.007,1.007,0,0,0,1.422.077,1.008,1.008,0,0,0,.076-1.422h0a14.094,14.094,0,0,0-19.9-1.082,14.113,14.113,0,0,0-1.082,1.082Z" transform="translate(72.499 40)" fill="url(#linear-gradient)"/>
</svg>
