<svg xmlns="http://www.w3.org/2000/svg" xmlns:xlink="http://www.w3.org/1999/xlink" width="27.523" height="45.276" viewBox="0 0 27.523 45.276">
  <defs>
    <linearGradient id="linear-gradient" x1="0.042" y1="0.407" x2="1" y2="0.411" gradientUnits="objectBoundingBox">
      <stop offset="0" stop-color="#d12b8a"/>
      <stop offset="1" stop-color="#70489d"/>
    </linearGradient>
  </defs>
  <path id="smartphone" d="M-31.42,2H-50.063A4.449,4.449,0,0,0-54.5,6.448v36.38a4.449,4.449,0,0,0,4.44,4.448H-31.42a4.449,4.449,0,0,0,4.44-4.448V6.448A4.449,4.449,0,0,0-31.42,2Zm2.665,40.828A2.672,2.672,0,0,1-31.42,45.5H-50.063a2.671,2.671,0,0,1-2.663-2.672V6.448a2.672,2.672,0,0,1,2.665-2.672h18.643a2.672,2.672,0,0,1,2.665,2.672ZM-42.071,5.551h5.327V7.326h-5.327Zm-4.439,0h2.663V7.326H-46.51ZM-40.739,38.4a3.107,3.107,0,0,0-3.108,3.108,3.107,3.107,0,0,0,3.108,3.108,3.107,3.107,0,0,0,3.108-3.108h0A3.111,3.111,0,0,0-40.739,38.4Zm0,4.439a1.331,1.331,0,0,1-1.331-1.331,1.331,1.331,0,0,1,1.331-1.331,1.331,1.331,0,0,1,1.331,1.331A1.334,1.334,0,0,1-40.739,42.837Z" transform="translate(54.503 -2)" fill="url(#linear-gradient)"/>
</svg>
