<svg xmlns="http://www.w3.org/2000/svg" width="89.348" height="69.367" viewBox="0 0 89.348 69.367">
  <g id="Group_1652" data-name="Group 1652" transform="translate(-259.152 -2503.387)">
    <g id="wifi" transform="translate(355.89 2521.523) rotate(90)">
      <path id="Path_37" data-name="Path 37" d="M32.164,14.505a22.646,22.646,0,0,0-31.991,0,.589.589,0,0,0,.833.833,21.468,21.468,0,0,1,30.326,0,.589.589,0,1,0,.833-.832Z" stroke="#000" stroke-width="1"/>
      <path id="Path_38" data-name="Path 38" d="M6.05,21.382a.589.589,0,1,0,.833.833,16.566,16.566,0,0,1,23.4,0,.589.589,0,0,0,.833-.833A17.746,17.746,0,0,0,6.05,21.382Z" transform="translate(-2.416 -3.416)" stroke="#000" stroke-width="1"/>
      <path id="Path_39" data-name="Path 39" d="M21,24.508a12.744,12.744,0,0,0-9.072,3.752.589.589,0,0,0,.833.833,11.666,11.666,0,0,1,16.478,0,.589.589,0,0,0,.833-.833A12.743,12.743,0,0,0,21,24.508Z" transform="translate(-4.833 -6.831)" stroke="#000" stroke-width="1"/>
      <path id="Path_40" data-name="Path 40" d="M24.761,33.916a3.859,3.859,0,1,0,3.859,3.859A3.863,3.863,0,0,0,24.761,33.916Zm0,6.539a2.681,2.681,0,1,1,2.681-2.681A2.683,2.683,0,0,1,24.761,40.455Z" transform="translate(-8.593 -10.699)" stroke="#000" stroke-width="1"/>
    </g>
    <g id="cellphone-internet-connection" transform="translate(256.502 2503.387)">
      <path id="Path_41" data-name="Path 41" d="M60.793,34.173v-.019a19.148,19.148,0,0,0-19.126-19.12h0a19.152,19.152,0,0,0-19.13,19.128h0v0a19.151,19.151,0,0,0,19.13,19.126h0A19.155,19.155,0,0,0,60.793,34.173ZM41.667,51.26h0c-1.959,0-4.081-3.734-5.089-9.657a48.46,48.46,0,0,0,5.089.269,48.459,48.459,0,0,0,5.089-.269C45.748,47.526,43.626,51.26,41.667,51.26Zm0-11.415a46.025,46.025,0,0,1-5.384-.3,47.963,47.963,0,0,1,0-10.763,47.669,47.669,0,0,1,10.767,0,46.444,46.444,0,0,1,.3,5.381,46.417,46.417,0,0,1-.3,5.381A45.541,45.541,0,0,1,41.667,39.845Zm-17.1-5.682c0-1.959,3.732-4.083,9.655-5.085a48.2,48.2,0,0,0,0,10.17c-5.924-1-9.655-3.124-9.655-5.085Zm17.1-17.1h0c1.959,0,4.081,3.732,5.089,9.655a48.281,48.281,0,0,0-10.178,0C37.586,20.795,39.708,17.065,41.667,17.065Zm7.442,12.01c5.919,1.006,9.649,3.124,9.655,5.081v.011c-.006,1.961-3.74,4.079-9.655,5.079a48.32,48.32,0,0,0,.269-5.085A48.381,48.381,0,0,0,49.109,29.076ZM58.3,30.206c-2.192-1.535-5.629-2.618-9.46-3.215-.6-3.835-1.679-7.268-3.215-9.465A17.156,17.156,0,0,1,58.3,30.206ZM37.711,17.527c-1.538,2.2-2.618,5.629-3.217,9.465-3.833.6-7.266,1.679-9.46,3.217A17.168,17.168,0,0,1,37.711,17.527ZM25.033,38.119c2.194,1.538,5.627,2.616,9.46,3.217.6,3.837,1.679,7.268,3.217,9.465A17.178,17.178,0,0,1,25.033,38.119ZM45.623,50.79c1.54-2.19,2.618-5.623,3.215-9.46,3.833-.6,7.27-1.679,9.46-3.217A17.141,17.141,0,0,1,45.623,50.79Zm-3.956,5.553c-.667,0-1.324-.042-1.98-.1V60.7H5.911V7.429H39.686v4.646c.657-.057,1.307-.1,1.98-.1.43,0,.856.042,1.279.061V4.683A4.7,4.7,0,0,0,38.259,0H7.337A4.7,4.7,0,0,0,2.65,4.683v60a4.7,4.7,0,0,0,4.687,4.685H38.261a4.7,4.7,0,0,0,4.687-4.685V56.277C42.524,56.3,42.1,56.343,41.667,56.343ZM17.854,3.378h9.894a.57.57,0,0,1,0,1.139H17.854a.57.57,0,0,1,0-1.139ZM22.8,67.025a2.339,2.339,0,1,1,2.344-2.34A2.341,2.341,0,0,1,22.8,67.025Z" fill="#030303"/>
    </g>
  </g>
</svg>
