<svg xmlns="http://www.w3.org/2000/svg" width="66.954" height="54.532" viewBox="0 0 66.954 54.532">
  <g id="worldwide" transform="translate(0.306 -47.637)">
    <g id="Group_1177" data-name="Group 1177" transform="translate(22.784 47.948)">
      <g id="Group_1176" data-name="Group 1176" transform="translate(0 0)">
        <path id="Path_175" data-name="Path 175" d="M211.492,55.856A26.924,26.924,0,0,0,177.1,52.741a1.3,1.3,0,0,0,1.476,2.13,24.265,24.265,0,0,1,8-3.619,16.774,16.774,0,0,0-1.466,2.156,36.619,36.619,0,0,0-3.989,12.712,1.3,1.3,0,1,0,2.564.378c.158-1.069.347-2.111.565-3.117h16.364a54.427,54.427,0,0,1,1.144,10.237h-3.629a1.3,1.3,0,1,0,0,2.592h3.629a54.427,54.427,0,0,1-1.144,10.237H194.2a1.3,1.3,0,0,0,0,2.592h5.769a32.338,32.338,0,0,1-1.214,3.522c-1.642,3.96-3.746,6.352-5.838,6.676q-.482.01-.964,0c-3.657-.55-7.123-7.355-8.362-16.587a1.3,1.3,0,1,0-2.569.345,37.808,37.808,0,0,0,3.96,13.2,17.162,17.162,0,0,0,1.564,2.345,24,24,0,0,1-8.656-4.074,1.3,1.3,0,0,0-1.549,2.078,26.925,26.925,0,0,0,16.087,5.324h0q.921,0,1.847-.063a26.955,26.955,0,0,0,17.21-45.951Zm5.268,17.764H204.354a57.616,57.616,0,0,0-1.091-10.237H213.9A24.18,24.18,0,0,1,216.761,73.619ZM184.9,60.79a27.208,27.208,0,0,1,2.459-6.085c1.547-2.677,3.349-4.152,5.075-4.152,2.25,0,4.556,2.448,6.326,6.716a32.34,32.34,0,0,1,1.214,3.522Zm16.253-4.514a20.4,20.4,0,0,0-2.866-5.019,24.332,24.332,0,0,1,11.373,6.431,24.671,24.671,0,0,1,2.628,3.1h-9.629A35.717,35.717,0,0,0,201.153,56.276Zm8.507,35.866a24.208,24.208,0,0,1-11.33,6.379,20.5,20.5,0,0,0,2.823-4.966,35.723,35.723,0,0,0,1.507-4.514h9.629A24.621,24.621,0,0,1,209.659,92.142Zm-6.4-5.693a57.616,57.616,0,0,0,1.091-10.237h12.406A24.177,24.177,0,0,1,213.9,86.449Z" transform="translate(-175.823 -47.948)" fill="#fff" stroke="#fff" stroke-width="0.6"/>
      </g>
    </g>
    <g id="Group_1179" data-name="Group 1179" transform="translate(34.427 86.449)">
      <g id="Group_1178" data-name="Group 1178">
        <path id="Path_176" data-name="Path 176" d="M267.882,345.432a1.3,1.3,0,1,0,.38.916A1.306,1.306,0,0,0,267.882,345.432Z" transform="translate(-265.67 -345.052)" fill="#fff"/>
      </g>
    </g>
    <g id="Group_1181" data-name="Group 1181" transform="translate(0 57.661)">
      <g id="Group_1180" data-name="Group 1180" transform="translate(0)">
        <path id="Path_177" data-name="Path 177" d="M40.423,139.364a10.884,10.884,0,0,0-8.589-4.24h-4.7L22.381,123.7a1.3,1.3,0,0,0-1.2-.8H16.291a1.3,1.3,0,0,0-1.3,1.3v10.923H10.266l-3.311-3.966a1.3,1.3,0,0,0-.995-.465H1.3A1.3,1.3,0,0,0,.169,132.63l4.284,7.523L.169,147.675A1.3,1.3,0,0,0,1.3,149.612H5.961a1.3,1.3,0,0,0,.995-.465l3.311-3.966H15v10.937a1.3,1.3,0,0,0,1.3,1.3h4.893a1.3,1.3,0,0,0,1.2-.8L27.13,145.18h4.7a10.884,10.884,0,0,0,8.589-4.24A1.3,1.3,0,0,0,40.423,139.364ZM17.587,125.5H20.32l4,9.628H17.587V125.5Zm2.732,29.325H17.587v-9.649h6.74Zm11.515-12.233H9.861a1.328,1.328,0,0,0-.251-.013,1.3,1.3,0,0,0-.934.464l-3.322,3.98H3.525l3.546-6.227a1.3,1.3,0,0,0,0-1.282l-3.546-6.227h1.83l3.322,3.98a1.3,1.3,0,0,0,.937.464,1.313,1.313,0,0,0,.249-.013H31.834a8.285,8.285,0,0,1,5.842,2.436A8.285,8.285,0,0,1,31.834,142.589Z" transform="translate(0 -122.905)" fill="#fff" stroke="#fff" stroke-width="0.5"/>
      </g>
    </g>
    <g id="Group_1183" data-name="Group 1183" transform="translate(0.194 57.661)">
      <g id="Group_1182" data-name="Group 1182" transform="translate(0 0)">
        <path id="Path_178" data-name="Path 178" d="M3.713,123.282a1.295,1.295,0,1,0,.38.916A1.305,1.305,0,0,0,3.713,123.282Z" transform="translate(-1.501 -122.902)" fill="#fff" stroke="#fff" stroke-width="1"/>
      </g>
    </g>
    <g id="Group_1185" data-name="Group 1185" transform="translate(4.924 57.661)">
      <g id="Group_1184" data-name="Group 1184">
        <path id="Path_179" data-name="Path 179" d="M44.8,122.905H39.3a1.3,1.3,0,1,0,0,2.592H44.8a1.3,1.3,0,1,0,0-2.592Z" transform="translate(-38 -122.905)" fill="#fff" stroke="#fff" stroke-width="1"/>
      </g>
    </g>
    <g id="Group_1187" data-name="Group 1187" transform="translate(1.166 89.578)">
      <g id="Group_1186" data-name="Group 1186">
        <path id="Path_180" data-name="Path 180" d="M18.294,369.2h-8a1.3,1.3,0,1,0,0,2.592h8a1.3,1.3,0,1,0,0-2.592Z" transform="translate(-9 -369.198)" fill="#fff" stroke="#fff" stroke-width="1"/>
      </g>
    </g>
  </g>
</svg>
