<svg xmlns="http://www.w3.org/2000/svg" width="78.137" height="68.267" viewBox="0 0 78.137 68.267">
  <g id="Group_1650" data-name="Group 1650" transform="translate(-761.943 -2543.755)">
    <g id="worldwide_1_" data-name="worldwide (1)" transform="translate(761.943 2560.81)">
      <path id="Path_197" data-name="Path 197" d="M25.593.047h-.01a25.583,25.583,0,1,0,0,51.165h.01a25.583,25.583,0,1,0,0-51.165Zm21.955,16.2H36.231a33.327,33.327,0,0,0-2.743-6.822h9.623A23.956,23.956,0,0,1,47.548,16.249ZM25.585,2.031a29.686,29.686,0,0,1,4.891,5.691H20.7A29.657,29.657,0,0,1,25.585,2.031ZM18.657,7.722H9.825A23.777,23.777,0,0,1,23.279,1.867,31.825,31.825,0,0,0,18.657,7.722ZM27.9,1.865A23.778,23.778,0,0,1,41.361,7.722h-8.84A31.82,31.82,0,0,0,27.9,1.865Zm3.638,7.562a31.66,31.66,0,0,1,2.943,6.822H16.709a31.56,31.56,0,0,1,2.935-6.822Zm-23.458,0h9.616a33.281,33.281,0,0,0-2.736,6.822H3.638A23.948,23.948,0,0,1,8.075,9.427ZM2.988,17.955H48.2a23.785,23.785,0,0,1,0,15.35H2.988A23.785,23.785,0,0,1,2.988,17.955Zm22.6,31.274A29.651,29.651,0,0,1,20.7,43.537h9.777a29.676,29.676,0,0,1-4.891,5.692Zm6.935-5.692h8.84a23.779,23.779,0,0,1-13.473,5.857A31.83,31.83,0,0,0,32.521,43.537Zm-9.242,5.855A23.778,23.778,0,0,1,9.825,43.537h8.832A31.827,31.827,0,0,0,23.279,49.393Zm-3.635-7.561a31.551,31.551,0,0,1-2.935-6.822H34.476a31.66,31.66,0,0,1-2.943,6.822ZM3.638,35.01H14.954a33.281,33.281,0,0,0,2.736,6.822H8.075A23.943,23.943,0,0,1,3.638,35.01Zm39.473,6.822H33.488a33.308,33.308,0,0,0,2.743-6.822H47.548A23.95,23.95,0,0,1,43.111,41.832Zm0,0" transform="translate(0 0)" fill="#fff"/>
      <path id="Path_198" data-name="Path 198" d="M42.877,199.774a.853.853,0,0,0,.812.628H43.7a.853.853,0,0,0,.817-.608l1.741-5.8,1.741,5.8a.852.852,0,0,0,.817.608h.011a.852.852,0,0,0,.812-.628l2.558-9.38-1.646-.448-1.775,6.506-1.706-5.674a.853.853,0,0,0-1.634,0l-1.706,5.674-1.774-6.506-1.646.448Zm0,0" transform="translate(-36.015 -169.656)" fill="#fff"/>
      <path id="Path_199" data-name="Path 199" d="M187.689,200.4h.011a.853.853,0,0,0,.817-.608l1.741-5.8,1.741,5.8a.852.852,0,0,0,.817.608h.011a.852.852,0,0,0,.812-.628l2.558-9.38-1.646-.448-1.775,6.506-1.706-5.674a.853.853,0,0,0-1.634,0l-1.706,5.674-1.774-6.506-1.646.448,2.558,9.38A.852.852,0,0,0,187.689,200.4Zm0,0" transform="translate(-164.666 -169.656)" fill="#fff"/>
      <path id="Path_200" data-name="Path 200" d="M331.689,200.4h.011a.853.853,0,0,0,.817-.608l1.741-5.8,1.741,5.8a.852.852,0,0,0,.817.608h.011a.852.852,0,0,0,.812-.628l2.558-9.38-1.646-.448-1.775,6.506-1.706-5.674a.853.853,0,0,0-1.634,0l-1.706,5.674-1.774-6.506-1.646.448,2.558,9.38A.852.852,0,0,0,331.689,200.4Zm0,0" transform="translate(-293.316 -169.656)" fill="#fff"/>
    </g>
    <g id="speech-bubble_1_" data-name="speech-bubble (1)" transform="translate(808 2507.505)">
      <g id="Group_1196" data-name="Group 1196" transform="translate(0 36.5)">
        <path id="Path_201" data-name="Path 201" d="M24.256,50.324V39.277A2.782,2.782,0,0,0,21.479,36.5H2.777A2.782,2.782,0,0,0,0,39.277V50.324A2.782,2.782,0,0,0,2.777,53.1H3.57v3.33a1.113,1.113,0,0,0,1.118,1.112h0a1.122,1.122,0,0,0,.842-.387l3.508-4.061H21.485A2.771,2.771,0,0,0,24.256,50.324ZM8.687,51.6a.756.756,0,0,0-.571.258l-3.047,3.52V52.345a.755.755,0,0,0-.756-.756H2.777a1.274,1.274,0,0,1-1.272-1.272V39.277a1.274,1.274,0,0,1,1.272-1.272h18.7a1.274,1.274,0,0,1,1.272,1.272V50.324A1.274,1.274,0,0,1,21.479,51.6Z" transform="translate(0 -36.5)" fill="#fff" stroke="#fff" stroke-width="0.5"/>
        <path id="Path_202" data-name="Path 202" d="M167.031,131.162a1.1,1.1,0,0,0,.836.387,1.113,1.113,0,0,0,.393-.074,1.1,1.1,0,0,0,.725-1.044V127.1h.793a2.782,2.782,0,0,0,2.777-2.777V113.277a2.782,2.782,0,0,0-2.777-2.777.753.753,0,1,0,0,1.505,1.274,1.274,0,0,1,1.272,1.272v11.047a1.274,1.274,0,0,1-1.272,1.272h-1.542a.755.755,0,0,0-.756.756v3.029l-3.047-3.52a.746.746,0,0,0-.571-.258h-11.3a.756.756,0,1,0,0,1.511h10.961Z" transform="translate(-142.474 -105.954)" fill="#fff" stroke="#fff" stroke-width="0.5"/>
        <circle id="Ellipse_26" data-name="Ellipse 26" cx="0.897" cy="0.897" r="0.897" transform="translate(11.231 7.667)" fill="#fff" stroke="#fff" stroke-width="0.5"/>
        <circle id="Ellipse_27" data-name="Ellipse 27" cx="0.897" cy="0.897" r="0.897" transform="translate(14.235 7.667)" fill="#fff" stroke="#fff" stroke-width="0.5"/>
        <circle id="Ellipse_28" data-name="Ellipse 28" cx="0.897" cy="0.897" r="0.897" transform="translate(8.227 7.667)" fill="#fff" stroke="#fff" stroke-width="0.5"/>
      </g>
    </g>
    <g id="like_3_" data-name="like (3)" transform="translate(786.887 2573.188)">
      <g id="Group_1198" data-name="Group 1198" transform="translate(31 4.488)">
        <g id="Group_1197" data-name="Group 1197" transform="translate(0)">
          <path id="Path_204" data-name="Path 204" d="M52.627,102.146a2.218,2.218,0,0,0-1.653-3.7H46.667a14.345,14.345,0,0,0,.609-3.749v-.739A2.963,2.963,0,0,0,44.316,91h-.74a.74.74,0,0,0-.718.56l-.4,1.612c-.565,2.258-2.357,4.749-4.213,5.2a2.222,2.222,0,0,0-2.064-1.407H31.74a.74.74,0,0,0-.74.74v13.316a.74.74,0,0,0,.74.74h4.439a2.222,2.222,0,0,0,2-1.265l2.542.847a8.119,8.119,0,0,0,2.573.418h6.2a2.22,2.22,0,0,0,2.063-3.037,2.218,2.218,0,0,0,1.069-3.621,2.215,2.215,0,0,0,0-2.959Zm-15.708,7.4a.741.741,0,0,1-.74.74h-3.7V98.447h3.7a.741.741,0,0,1,.74.74Zm12.576-6.658h1.48a.74.74,0,1,1,0,1.48h-1.48a.74.74,0,0,0,0,1.48h1.48a.74.74,0,1,1,0,1.48h-1.48a.74.74,0,1,0,0,1.48.74.74,0,1,1,0,1.48H43.3a6.643,6.643,0,0,1-2.106-.342l-2.793-.931V99.857A5.961,5.961,0,0,0,41.719,97.7a10.794,10.794,0,0,0,2.172-4.167l.263-1.052h.162a1.481,1.481,0,0,1,1.48,1.48V94.7a11.706,11.706,0,0,1-.708,3.749H43.576a.74.74,0,1,0,0,1.48h7.4a.74.74,0,1,1,0,1.48h-1.48a.74.74,0,0,0,0,1.48Z" transform="translate(-31 -91)" fill="#fff"/>
        </g>
      </g>
      <g id="Group_1200" data-name="Group 1200" transform="translate(34.017 20.705)">
        <g id="Group_1199" data-name="Group 1199" transform="translate(0 0)">
          <ellipse id="Ellipse_29" data-name="Ellipse 29" cx="0.638" cy="0.85" rx="0.638" ry="0.85" fill="#fff"/>
        </g>
      </g>
      <g id="Group_1202" data-name="Group 1202" transform="translate(44.316)">
        <g id="Group_1201" data-name="Group 1201" transform="translate(0)">
          <path id="Path_205" data-name="Path 205" d="M301.74,0a.74.74,0,0,0-.74.74V2.269a.74.74,0,0,0,1.48,0V.74A.74.74,0,0,0,301.74,0Z" transform="translate(-301)" fill="#fff"/>
        </g>
      </g>
      <g id="Group_1204" data-name="Group 1204" transform="translate(39.608 1.999)">
        <g id="Group_1203" data-name="Group 1203" transform="translate(0)">
          <path id="Path_206" data-name="Path 206" d="M207.85,41.8,206.8,40.758a.74.74,0,0,0-1.046,1.046l1.046,1.046A.74.74,0,0,0,207.85,41.8Z" transform="translate(-205.54 -40.542)" fill="#fff"/>
        </g>
      </g>
      <g id="Group_1206" data-name="Group 1206" transform="translate(47.978 1.999)">
        <g id="Group_1205" data-name="Group 1205" transform="translate(0)">
          <path id="Path_207" data-name="Path 207" d="M377.556,40.758a.74.74,0,0,0-1.046,0L375.463,41.8a.74.74,0,0,0,1.046,1.046l1.046-1.046A.74.74,0,0,0,377.556,40.758Z" transform="translate(-375.247 -40.542)" fill="#fff"/>
        </g>
      </g>
    </g>
  </g>
</svg>
