<svg xmlns="http://www.w3.org/2000/svg" xmlns:xlink="http://www.w3.org/1999/xlink" width="203.324" height="54.35" viewBox="0 0 203.324 54.35">
  <defs>
    <linearGradient id="linear-gradient" x1="0.18" y1="1.604" x2="0.729" y2="-0.12" gradientUnits="objectBoundingBox">
      <stop offset="0" stop-color="#fff"/>
      <stop offset="0.068" stop-color="#e4e4e4"/>
      <stop offset="0.17" stop-color="#c2c2c2"/>
      <stop offset="0.253" stop-color="#adadad"/>
      <stop offset="0.309" stop-color="#a6a6a6"/>
      <stop offset="0.531" stop-color="#a6a6a6"/>
      <stop offset="0.74" stop-color="#b3b3b3"/>
      <stop offset="0.892" stop-color="#ccc"/>
    </linearGradient>
    <linearGradient id="linear-gradient-2" y1="0.5" x2="1" y2="0.5" gradientUnits="objectBoundingBox">
      <stop offset="0" stop-color="#a6a6a6"/>
      <stop offset="0.086" stop-color="#bababa"/>
      <stop offset="0.221" stop-color="#d5d5d5"/>
      <stop offset="0.342" stop-color="#e5e5e5"/>
      <stop offset="0.435" stop-color="#ebebeb"/>
      <stop offset="0.549" stop-color="#d2d2d2"/>
      <stop offset="0.721" stop-color="#b2b2b2"/>
      <stop offset="0.816" stop-color="#a6a6a6"/>
    </linearGradient>
  </defs>
  <g id="Group_1" data-name="Group 1" transform="translate(-153.197 -226.796)">
    <path id="Path_1" data-name="Path 1" d="M408.446,277.569V246.3A7.048,7.048,0,0,0,406.6,241a7.464,7.464,0,0,0-5.453-2,4.667,4.667,0,0,0-.561.022V270.3a7.024,7.024,0,0,0,1.843,5.285,7.472,7.472,0,0,0,5.436,2c.177,0,.389,0,.578-.017Zm.716-46.143a4.645,4.645,0,1,0-4.647,4.659,4.642,4.642,0,0,0,4.647-4.659Zm-23.549,30.99V270.3a7,7,0,0,0,1.849,5.285,7.507,7.507,0,0,0,5.447,2c.183,0,.389,0,.572-.017v-16.8c0-7.23-1.971-12.094-5.48-15.881-3.615-3.887-9.017-6.136-15.275-6.136-12,0-20.323,8.79-20.323,20.239,0,11.25,7.7,18.757,17.691,18.757,7.7,0,12.327-4.581,12.327-9.95a11.14,11.14,0,0,0-2-6.2c-1.11,5.775-4.3,8.951-9.445,8.951-5.492,0-10.322-4.164-10.322-11.755,0-7.463,4.842-12.566,12.094-12.566a12.059,12.059,0,0,1,8.756,3.437c2.6,2.571,4.109,6.513,4.109,12.749ZM447,267.241a.306.306,0,0,1-.239-.15c-5.642-7.346-16-20.884-18.246-23.838-2.376-3.092-4.236-4.109-6.691-4.109a5.744,5.744,0,0,0-4.292,1.738,7.548,7.548,0,0,0-1.694,5.192V270.3a6.983,6.983,0,0,0,1.843,5.285,7.275,7.275,0,0,0,5.314,2,3.841,3.841,0,0,0,.444-.017V249.8c0-.2.089-.311.222-.311.1,0,.161.044.239.161,3.309,4.3,15.864,20.722,18.268,23.81,2.377,3.087,4.226,4.126,6.668,4.126a5.737,5.737,0,0,0,4.3-1.727,7.561,7.561,0,0,0,1.7-5.192V246.441a7.108,7.108,0,0,0-1.849-5.308,7.307,7.307,0,0,0-5.325-1.988c-.155,0-.271,0-.438.012v27.785c0,.2-.095.3-.222.3Zm-123.685,2.9c-.311,0-.489-.105-.489-.311a.571.571,0,0,1,.267-.388c2.415-1.955,18.391-14.843,20.828-16.847,4.236-3.41,5.125-5.076,5.125-7.5a5.111,5.111,0,0,0-1.772-3.854c-1.282-1.088-3.2-1.677-6.3-1.677H313.762V240a7.277,7.277,0,0,0,1,3.953c1.1,1.577,3.176,2.488,5.98,2.488H338.61c.317,0,.489.094.489.256,0,.139-.078.233-.278.383-2.526,2.049-17.275,13.948-20.95,16.886-4.247,3.409-5.091,5.108-5.091,7.523a5.086,5.086,0,0,0,1.777,3.837c1.283,1.094,3.2,1.694,6.314,1.694h28.462v-.272a6.391,6.391,0,0,0-1.782-4.859c-1.388-1.282-3.187-1.749-6.558-1.749Z" transform="translate(-98.311 0)" fill="url(#linear-gradient)"/>
    <path id="Path_2" data-name="Path 2" d="M196.624,252.225c0-4.532-3.486-7.962-8.462-7.58-10.557.81-11.92,12.819-5.048,13.587,7.186.8,9.758-6.8,9.9-7.223a0,0,0,0,1,.007,0c.016.515.4,10.971-10.263,10.971a8.292,8.292,0,0,1-8.392-8.452c0-5.817,5.658-11.6,13.64-11.91,4.471-.173,7.417.883,9.725,3.191,4.7,4.7,3.349,13.521-.458,17.876-6.042,6.912-14.535,8.668-22.448,5.12s-10.749-13.821-5.953-22.417c1.763-3.161,8.169-10.206,19.178-10.206,13.976,0,21.063,9.907,19.783,21.545-.981,8.917-6.4,15.376-8.908,18.1-11.032,11.99-27.243,14.38-37.459,8.144a17.017,17.017,0,0,1-8.165-16.562,17.018,17.018,0,0,0,7.309,12.238c8.35,5.695,22.313,6.477,32.4-4.621-10.142,7.576-21.994,7.462-30.086,2.19-7.426-4.838-9.468-14.5-5.831-24.047-1.825,8.516,1.107,16.41,7.547,20.524,10.039,6.413,24.664,2.725,33.88-7.6a19.177,19.177,0,0,0,4.884-12.6c-.1-7.222-5.131-13.706-15.292-13.706-10.431,0-17.6,8.063-17.6,14.774,0,7.45,5.113,11.7,11.782,11.7C188.893,265.269,196.624,261.108,196.624,252.225Z" transform="translate(0 -5.167)" fill="url(#linear-gradient-2)"/>
  </g>
</svg>
